<?xml version="1.0" standalone="no"?>
<!DOCTYPE svg PUBLIC "-//W3C//DTD SVG 20010904//EN"
 "http://www.w3.org/TR/2001/REC-SVG-20010904/DTD/svg10.dtd">
<svg version="1.0" xmlns="http://www.w3.org/2000/svg"
 width="700.000000pt" height="700.000000pt" viewBox="0 0 700.000000 700.000000"
 preserveAspectRatio="xMidYMid meet">
<metadata>
Created by potrace 1.11, written by Peter Selinger 2001-2013
</metadata>
<g transform="translate(0.000000,700.000000) scale(0.100000,-0.100000)"
fill="#000000" stroke="none">
<path d="M1298 6854 c-97 -15 -159 -36 -276 -90 -134 -62 -332 -196 -467 -315
-112 -98 -157 -141 -205 -194 l-55 -59 55 42 c30 23 60 45 65 50 61 46 243
116 335 127 64 8 189 9 228 1 15 -3 46 -8 70 -11 67 -9 184 -41 259 -71 177
-69 313 -175 439 -341 24 -32 49 -64 55 -71 11 -14 116 -156 637 -868 362
-495 394 -533 535 -632 115 -80 263 -138 412 -162 70 -11 280 -16 313 -6 9 2
40 7 67 11 220 27 601 169 883 329 34 19 62 33 62 30 0 -3 -23 -44 -50 -91
-73 -122 -131 -241 -184 -375 -42 -107 -98 -286 -110 -355 -2 -15 -9 -51 -15
-79 -15 -74 -24 -186 -25 -299 -1 -90 1 -123 19 -244 31 -208 144 -445 292
-608 22 -24 256 -225 543 -465 14 -12 41 -35 60 -52 20 -17 57 -49 84 -71 27
-22 54 -45 60 -50 6 -6 99 -84 206 -175 264 -223 258 -218 318 -280 141 -147
232 -349 266 -590 43 -298 -30 -538 -229 -760 -22 -25 -31 -38 -20 -29 102 80
147 121 255 229 146 146 165 168 246 275 77 104 104 146 148 233 179 355 117
682 -207 1091 l-66 84 43 51 c139 163 216 348 210 501 -10 223 -124 412 -463
768 -44 46 -44 46 -24 64 37 32 113 133 140 186 97 192 39 360 -220 630 -18
18 -70 75 -117 127 -47 51 -96 105 -110 120 -14 15 -63 69 -110 120 -47 51
-90 98 -97 105 -108 111 -151 191 -157 298 -3 68 15 172 39 223 8 18 15 36 15
41 0 4 16 34 35 66 19 31 32 57 30 57 -2 0 -30 -12 -61 -26 -85 -39 -128 -52
-191 -60 -88 -11 -113 -10 -169 2 -101 23 -138 50 -274 199 -30 33 -98 107
-151 165 -105 115 -113 124 -232 255 -45 49 -110 117 -145 152 -214 214 -396
233 -634 66 l-77 -53 -52 57 c-225 245 -401 395 -533 452 -213 93 -423 59
-678 -109 l-72 -48 -86 80 c-305 286 -578 398 -862 352z m1277 -574 c110 -28
231 -91 306 -158 34 -31 102 -111 150 -177 49 -66 92 -124 96 -130 20 -25 254
-339 308 -414 33 -46 80 -111 105 -145 25 -33 80 -109 123 -168 160 -220 322
-320 587 -363 14 -2 58 -4 99 -4 91 -1 88 -9 -5 -18 -239 -21 -413 13 -582
115 -89 54 -187 149 -417 406 -39 44 -226 247 -250 272 -24 26 -149 162 -190
209 -5 6 -37 40 -70 76 -33 35 -103 111 -155 168 -52 57 -108 118 -124 135
-15 17 -46 51 -69 76 -22 25 -63 69 -91 99 l-51 53 75 -6 c41 -3 111 -15 155
-26z m1265 -260 c86 -27 142 -56 188 -102 38 -36 217 -273 429 -567 121 -166
196 -225 335 -260 l73 -19 -60 -4 c-96 -5 -216 13 -285 43 -68 30 -128 76
-195 149 -207 225 -276 301 -350 381 -28 30 -100 108 -160 174 -60 66 -129
140 -152 165 -29 31 -38 47 -30 52 20 14 148 6 207 -12z m1355 -1279 c11 -97
31 -168 75 -256 40 -83 79 -130 165 -202 80 -68 99 -83 125 -106 14 -12 52
-44 85 -72 290 -243 335 -293 371 -414 19 -64 25 -244 8 -261 -11 -11 -21 -2
-219 214 -55 60 -111 121 -125 136 -14 15 -61 66 -104 114 -44 48 -91 99 -105
114 -207 221 -237 259 -275 352 -47 115 -53 229 -20 419 7 45 11 38 19 -38z
m-377 -473 c1 -124 8 -184 37 -302 44 -177 172 -400 279 -484 23 -17 55 -44
72 -59 46 -41 98 -86 429 -365 165 -139 324 -277 352 -306 112 -113 184 -267
209 -447 10 -73 12 -165 3 -170 -4 -3 -47 39 -95 92 -49 54 -98 107 -109 119
-11 11 -59 63 -106 115 -47 52 -99 108 -115 125 -16 17 -67 73 -114 124 -47
51 -96 105 -110 120 -14 15 -68 74 -120 131 -52 56 -106 114 -119 128 -13 14
-60 66 -105 115 -44 49 -86 94 -92 100 -5 6 -63 69 -127 139 -133 146 -184
235 -211 369 -17 81 -22 236 -11 304 11 66 47 244 50 244 2 0 3 -42 3 -92z"/>
</g>
</svg>
