<svg xmlns="http://www.w3.org/2000/svg" viewBox="0 0 20 20"><defs><style>.a{fill:#ddd;fill-rule:evenodd;}</style></defs><path class="a" d="M0,10.2V20H4.653V6.667H0Zm19.866.537c-.313-2.506-1.477-4.116-4.877-4.116-2.013,0-3.356.716-3.893,1.79h-.045V6.622H7.338V19.955H11.23V13.378c0-1.745.358-3.4,2.461-3.4,2.148,0,2.327,1.969,2.327,3.535V20H20V12.662a13.435,13.435,0,0,0-.134-1.924ZM2.327,0A2.311,2.311,0,0,0,0,2.327,2.311,2.311,0,0,0,2.327,4.653,2.311,2.311,0,0,0,4.653,2.327,2.311,2.311,0,0,0,2.327,0Z"/></svg>