<svg xmlns="http://www.w3.org/2000/svg" xmlns:xlink="http://www.w3.org/1999/xlink" viewBox="0 0 821.18 184.59"><defs><style>.\38 2c7945a-1e35-40d8-914b-eea41d785cfc{fill:#fff56d;}.b00be79a-055d-4a66-aff5-2476a20a2988{fill:#ffdf4f;}.a5723a42-e501-47ef-ac9d-e1d9ab4ae164{fill:url(#2b34d10f-5e56-453e-8257-2fa4eaa20e77);}.ad332887-6f12-496c-8dcf-46b94e798615{opacity:0.62;}.\32 f0aa947-97bc-4a40-9905-1a1bce984504{fill:url(#984fce13-afe6-4869-9854-d28ff47dc796);}.\34 fc2fee5-0d15-49fb-8830-91f5ad0bf043{fill:url(#9273039c-7d8c-4f40-9c01-2575468b8215);}.\32 660435b-c973-4cd7-9a5f-67e153b83fb1{fill:url(#12fdc7c5-1359-486f-b287-6fb900bff9bb);}.eb5b9ac5-73a1-4890-b025-5218a15ba7f4{font-size:24px;font-family:Sanford-Book, Sanford;letter-spacing:-0.08em;}.\36 1d57071-ad46-406a-9edc-35d55b863332,.eb5b9ac5-73a1-4890-b025-5218a15ba7f4{fill:#fff;}.f750fa8c-5d13-48db-aa07-b1ab74e1127e{letter-spacing:-0.03em;}.d7ba9706-9be0-4fb7-b5e6-9ad6cd6b473a{letter-spacing:-0.07em;}.\33 82946a3-d76e-4449-b939-7d2dea9ba2b2{fill:#333;letter-spacing:-0.07em;}.\36 1d57071-ad46-406a-9edc-35d55b863332{font-size:90px;font-family:Sansation-Regular, Sansation;}.\34 13aecc8-fd42-42f7-9132-175dc8761fed{letter-spacing:-0.02em;}.\33 a392242-65e5-4c7a-a3b7-de7b9d220696{letter-spacing:-0.04em;}.\36 7e1cf35-6d27-4614-83e6-f0e20b9310ef{letter-spacing:-0.04em;}.\31 9bd6ef0-9734-45a0-9367-4acadf5a44d1{letter-spacing:-0.22em;}.\32 f0146ec-ffad-4877-a5b7-78442ee2ee3c{fill:#fc0;stroke:#fc0;stroke-miterlimit:10;stroke-width:2px;}.df2159fb-76d5-4c88-9841-d8dd7646f31c{fill:#4d4d4d;letter-spacing:-0.3em;}.e87cb153-baa3-41e8-ae9e-ff772f7a680c{letter-spacing:-0.04em;}.\36 e0206c4-8350-4ba8-89bf-a832a6d8bb60{letter-spacing:-0.08em;}</style><linearGradient id="2b34d10f-5e56-453e-8257-2fa4eaa20e77" y1="92.3" x2="173.76" y2="92.3" gradientUnits="userSpaceOnUse"><stop offset="0" stop-color="#ffe7a3"/><stop offset="0.5" stop-color="#ffca05"/><stop offset="1" stop-color="#faac18"/></linearGradient><linearGradient id="984fce13-afe6-4869-9854-d28ff47dc796" x1="107.95" y1="40.52" x2="107.95" y2="17.11" gradientUnits="userSpaceOnUse"><stop offset="0" stop-color="#fff78f"/><stop offset="0.55" stop-color="#fffbc8"/><stop offset="0.99" stop-color="#fffde3"/></linearGradient><linearGradient id="9273039c-7d8c-4f40-9c01-2575468b8215" x1="78.37" y1="36.67" x2="78.37" y2="6.33" xlink:href="#984fce13-afe6-4869-9854-d28ff47dc796"/><linearGradient id="12fdc7c5-1359-486f-b287-6fb900bff9bb" x1="35.52" y1="31.21" x2="35.52" y2="0" xlink:href="#984fce13-afe6-4869-9854-d28ff47dc796"/></defs><title>logo roberto cinetto</title><g id="f713f380-afdd-4830-a112-3664494515c0" data-name="Livello 2"><g id="7d4faec9-22a2-4135-af82-51384f0fe47a" data-name="Layer 1"><path class="82c7945a-1e35-40d8-914b-eea41d785cfc" d="M142.66,40.3h0c-3.86,5.35-5.25,12.44-1.19,16.86L156.9,73.93c7.76,8.43,7.38,14.09-2,22.74L153,98.17a10.23,10.23,0,0,0,3.52-9,12.64,12.64,0,0,0-4.27-8.78l-14-11.88c-6.49-7.05-6.2-19.48.79-24.93-6.92,5.39-16.69,7.65-23.23.54L103.57,27.53a12.4,12.4,0,0,0-8.4-5A10.11,10.11,0,0,0,86,25.23l1.48-1.58c9.46-8.71,15.16-8.64,22.91-.21l15.43,16.78C129.94,44.62,137,43.7,142.66,40.3Z"/><path class="b00be79a-055d-4a66-aff5-2476a20a2988" d="M139.16,43.53h0c-6.37,8.82-9.65,21.5-3,28.78L161.63,100c12.78,13.89,12.15,23.21-3.35,37.47l-3.09,2.48A16.85,16.85,0,0,0,161,125.15c-.52-5.11-2.21-10.33-7-14.47L130.85,91.11c-10.7-11.62-9.81-31.44,1.29-40.94-10.41,8.91-27.48,12.47-38.26.75L73.75,23.5c-3.91-5.36-8.78-7.27-13.84-8.21a16.65,16.65,0,0,0-15,4.42l2.44-2.61c15.59-14.35,25-14.24,37.76-.35l25.43,27.64C117.2,51.66,129.83,49.14,139.16,43.53Z"/><path class="a5723a42-e501-47ef-ac9d-e1d9ab4ae164" d="M132.14,50.17h0c-8.8,12.19-15.19,31-5.93,41l35.15,38.2c17.66,19.2,16.79,32.08-4.63,51.78l-4.27,3.42q9.21-8.48,8-20.39c-.71-7.06-3-14.28-9.72-20l-31.94-27c-14.78-16.06-9.07-39.52,1.81-56.52-17.61,9.69-38,17.18-52.91,1L39.91,23.73c-5.41-7.41-12.14-10-19.12-11.35Q9,10.19,0,18.48l3.37-3.61C24.92-5,37.9-4.8,55.56,14.39L90.7,52.59C102.09,63.7,119.49,58.45,132.14,50.17Z"/><g class="ad332887-6f12-496c-8dcf-46b94e798615"><path class="2f0aa947-97bc-4a40-9905-1a1bce984504" d="M110.44,23.43C103.3,15.66,97.9,15,89.69,21.75l.85.92a10.41,10.41,0,0,1,4.63-.14,12.4,12.4,0,0,1,8.4,5L111.26,38l14.95,2.52c-.11-.11-.22-.2-.33-.32Z"/><path class="4fc2fee5-0d15-49fb-8830-91f5ad0bf043" d="M89.69,21.75l-4.61-5C74,4.73,65.51,3,53.33,12.06c.73.75,1.47,1.51,2.22,2.33l.53.57a18.8,18.8,0,0,1,3.83.32c5.05.94,9.92,2.85,13.84,8.21l6.85,9.33,22.81,3.85-12.87-14Z"/><path class="2660435b-c973-4cd7-9a5f-67e153b83fb1" d="M55.56,14.39c-.75-.81-1.49-1.58-2.22-2.33C36.78-4.78,24-4.12,3.37,14.87L0,18.48q9-8.29,20.79-6.1c7,1.3,13.71,3.94,19.12,11.35l1.88,2.56L71,31.21,56.08,15Z"/></g><text class="eb5b9ac5-73a1-4890-b025-5218a15ba7f4" transform="translate(178.18 129.25) scale(0.95 1)">// <tspan class="f750fa8c-5d13-48db-aa07-b1ab74e1127e" x="20.45" y="0">i’</tspan><tspan class="d7ba9706-9be0-4fb7-b5e6-9ad6cd6b473a" x="30.24" y="0">m a web developer</tspan><tspan class="382946a3-d76e-4449-b939-7d2dea9ba2b2" x="210.38" y="0"> </tspan></text><text class="61d57071-ad46-406a-9edc-35d55b863332" transform="translate(175.76 95.93)"><tspan class="413aecc8-fd42-42f7-9132-175dc8761fed">.r</tspan><tspan class="3a392242-65e5-4c7a-a3b7-de7b9d220696" x="42.98" y="0">o</tspan><tspan x="92.12" y="0">b</tspan><tspan class="413aecc8-fd42-42f7-9132-175dc8761fed" x="144.32" y="0">e</tspan><tspan x="192.18" y="0">r</tspan><tspan class="67e1cf35-6d27-4614-83e6-f0e20b9310ef" x="221.84" y="0">t</tspan><tspan x="247.91" y="0">o</tspan><tspan class="19bd6ef0-9734-45a0-9367-4acadf5a44d1" x="300.64" y="0"> </tspan><tspan class="2f0146ec-ffad-4877-a5b7-78442ee2ee3c" x="302.81" y="0">{</tspan><tspan class="df2159fb-76d5-4c88-9841-d8dd7646f31c" x="332.48" y="0"> </tspan><tspan class="413aecc8-fd42-42f7-9132-175dc8761fed" x="327.45" y="0">c</tspan><tspan x="370.69" y="0">i</tspan><tspan class="67e1cf35-6d27-4614-83e6-f0e20b9310ef" x="393.77" y="0">n</tspan><tspan class="413aecc8-fd42-42f7-9132-175dc8761fed" x="443.12" y="0">e</tspan><tspan x="490.98" y="0">t</tspan><tspan class="e87cb153-baa3-41e8-ae9e-ff772f7a680c" x="520.64" y="0">t</tspan><tspan class="6e0206c4-8350-4ba8-89bf-a832a6d8bb60" x="546.7" y="0">o</tspan><tspan x="592.24" y="0">;</tspan><tspan class="2f0146ec-ffad-4877-a5b7-78442ee2ee3c" x="615.75" y="0">}</tspan></text></g></g></svg>